<?xml version="1.0" standalone="no"?>
<!DOCTYPE svg PUBLIC "-//W3C//DTD SVG 20010904//EN"
 "http://www.w3.org/TR/2001/REC-SVG-20010904/DTD/svg10.dtd">
<svg version="1.0" xmlns="http://www.w3.org/2000/svg"
 width="512.000000pt" height="512.000000pt" viewBox="0 0 512.000000 512.000000"
 preserveAspectRatio="xMidYMid meet">
<metadata>
Created by potrace 1.14, written by Peter Selinger 2001-2017
</metadata>
<g transform="translate(0.000000,512.000000) scale(0.100000,-0.100000)"
fill="#000000" stroke="none">
<path d="M0 2560 l0 -2560 2560 0 2560 0 0 2560 0 2560 -2560 0 -2560 0 0
-2560z m2930 2485 c152 -23 397 -82 386 -92 -2 -2 -55 9 -118 26 -216 58 -355
74 -628 74 -273 0 -412 -16 -628 -74 -63 -17 -116 -28 -118 -26 -5 5 106 36
216 61 60 14 233 40 325 50 90 9 464 -3 565 -19z m-1121 -99 c-2 -2 -51 -22
-109 -44 -348 -133 -636 -319 -894 -577 -264 -264 -471 -587 -586 -913 -18
-51 -35 -90 -38 -88 -9 10 82 235 149 366 289 573 754 989 1369 1226 75 29
121 42 109 30z m1652 -40 c342 -129 644 -330 909 -602 202 -208 335 -398 461
-659 63 -130 134 -313 126 -322 -2 -2 -19 38 -37 89 -181 514 -570 988 -1055
1286 -121 74 -316 168 -442 212 -85 30 -106 40 -85 40 4 0 60 -20 123 -44z
m-1606 -371 c-16 -8 -84 -38 -151 -68 -134 -59 -290 -153 -417 -249 -113 -86
-297 -273 -390 -395 -43 -57 -80 -103 -83 -103 -11 0 34 66 112 163 141 177
349 361 539 477 82 51 315 164 365 178 50 14 60 13 25 -3z m930 -59 c181 -25
312 -59 480 -124 667 -256 1143 -906 1202 -1642 11 -133 0 -393 -22 -502 -96
-492 -377 -928 -790 -1225 -233 -168 -499 -278 -806 -334 -35 -6 -152 -14
-258 -18 l-195 -6 -25 -102 c-15 -56 -29 -105 -33 -108 -5 -6 -83 49 -108 75
-3 3 -41 35 -85 70 -44 35 -165 134 -269 219 l-189 156 64 12 c35 7 150 28
254 48 105 20 259 50 343 66 85 17 156 28 159 25 5 -4 -23 -132 -43 -198 -5
-16 5 -18 105 -18 580 0 1129 324 1438 848 112 189 189 417 214 631 15 121 6
399 -16 511 -70 363 -231 670 -480 914 -293 288 -694 457 -1125 473 -463 16
-883 -152 -1225 -491 -216 -214 -373 -476 -456 -756 -29 -99 -68 -140 -132
-140 -72 0 -123 52 -118 120 7 115 131 410 261 620 140 225 403 479 652 629
203 121 443 206 699 246 112 17 380 18 504 1z m-756 -400 c-2 -2 -50 -24 -107
-49 -239 -105 -465 -283 -624 -489 -32 -43 -61 -78 -64 -78 -21 0 131 184 226
273 110 104 221 183 346 249 122 64 247 117 223 94z m821 -458 c209 -61 332
-131 481 -278 156 -153 240 -294 297 -497 25 -90 27 -112 27 -283 0 -171 -2
-193 -27 -283 -57 -203 -141 -344 -297 -497 -150 -147 -287 -225 -495 -283
-70 -19 -105 -22 -266 -22 -159 1 -196 4 -266 23 -197 53 -341 134 -485 271
-154 145 -250 304 -307 508 -25 90 -27 112 -27 283 0 171 2 192 28 284 54 193
148 359 281 492 133 133 291 226 461 273 135 37 165 40 340 37 144 -3 183 -8
255 -28z m-2699 -430 c-58 -216 -74 -355 -74 -628 0 -273 16 -412 74 -628 17
-63 28 -116 26 -118 -11 -11 -69 235 -94 396 -25 161 -25 539 0 700 25 161 83
407 94 396 2 -2 -9 -55 -26 -118z m4859 -43 c52 -215 64 -327 64 -585 0 -284
-16 -415 -86 -673 -11 -43 -22 -76 -25 -73 -2 2 9 55 26 118 58 216 74 355 74
628 0 272 -16 412 -73 626 -17 61 -30 115 -29 120 1 20 22 -48 49 -161z
m-4790 -1437 c181 -514 570 -988 1055 -1286 121 -74 316 -168 443 -212 51 -18
91 -35 89 -37 -9 -8 -192 63 -322 126 -261 126 -451 259 -659 461 -213 207
-363 409 -493 664 -56 111 -153 344 -153 368 0 21 10 0 40 -84z m4710 -4 c-17
-49 -67 -161 -110 -249 -135 -276 -281 -476 -506 -695 -208 -202 -399 -336
-659 -461 -131 -63 -313 -134 -322 -126 -2 2 38 19 89 37 514 181 988 570
1286 1055 74 121 168 316 212 443 18 51 35 91 37 89 2 -2 -10 -44 -27 -93z
m-2986 -1564 c214 -57 354 -73 626 -73 273 0 412 16 628 74 63 17 116 28 118
26 11 -11 -236 -69 -396 -94 -161 -24 -538 -25 -700 0 -115 18 -333 67 -380
86 -45 18 -8 11 104 -19z"/>
<path d="M2418 3510 c-377 -68 -681 -345 -779 -711 -33 -121 -33 -357 -1 -476
45 -167 119 -298 237 -422 129 -134 280 -225 455 -272 123 -33 357 -33 480 0
175 47 326 138 455 272 118 124 192 255 237 422 32 120 32 355 -1 477 -44 166
-117 294 -236 419 -129 135 -282 226 -455 271 -94 25 -307 36 -392 20z m402
-40 c409 -117 690 -488 690 -908 0 -122 -13 -198 -49 -307 -130 -380 -488
-635 -891 -635 -216 0 -417 70 -587 205 -137 108 -245 260 -303 427 -67 192
-68 417 -3 608 111 329 388 568 730 630 87 16 329 4 413 -20z"/>
<path d="M2366 3419 c-159 -39 -318 -131 -432 -250 -104 -110 -163 -208 -210
-349 -26 -80 -28 -95 -28 -260 -1 -166 1 -180 28 -260 103 -312 352 -539 662
-605 89 -19 279 -19 368 0 310 66 559 293 662 605 27 80 29 95 29 260 0 172
-1 177 -33 270 -51 149 -103 231 -217 346 -134 136 -272 213 -444 250 -97 20
-288 17 -385 -7z m429 -18 c157 -41 327 -145 426 -262 96 -114 145 -202 186
-336 24 -79 27 -103 27 -243 0 -141 -3 -163 -28 -245 -67 -218 -200 -389 -396
-505 -421 -252 -974 -96 -1209 341 -172 319 -119 734 128 1001 139 150 289
227 531 272 57 11 258 -3 335 -23z"/>
<path d="M2518 3393 c7 -3 16 -2 19 1 4 3 -2 6 -13 5 -11 0 -14 -3 -6 -6z"/>
<path d="M2608 3393 c7 -3 16 -2 19 1 4 3 -2 6 -13 5 -11 0 -14 -3 -6 -6z"/>
<path d="M2446 3251 c-17 -3 39 -6 124 -6 85 0 141 3 124 6 -16 4 -72 7 -124
7 -52 0 -108 -3 -124 -7z"/>
<path d="M2365 3230 c-13 -5 -14 -9 -5 -9 8 0 24 4 35 9 13 5 14 9 5 9 -8 0
-24 -4 -35 -9z"/>
<path d="M2745 3230 c11 -5 27 -9 35 -9 9 0 8 4 -5 9 -11 5 -27 9 -35 9 -9 0
-8 -4 5 -9z"/>
<path d="M2800 3218 c9 -9 120 -57 120 -53 0 6 -70 41 -100 50 -14 4 -23 5
-20 3z"/>
<path d="M2930 3157 c0 -3 12 -12 26 -22 15 -9 23 -12 20 -6 -7 11 -46 35 -46
28z"/>
<path d="M3005 3100 c10 -11 20 -20 23 -20 3 0 -3 9 -13 20 -10 11 -20 20 -23
20 -3 0 3 -9 13 -20z"/>
<path d="M3060 3055 c13 -14 26 -25 28 -25 3 0 -5 11 -18 25 -13 14 -26 25
-28 25 -3 0 5 -11 18 -25z"/>
<path d="M3105 3000 c10 -11 20 -20 23 -20 3 0 -3 9 -13 20 -10 11 -20 20 -23
20 -3 0 3 -9 13 -20z"/>
<path d="M1974 2928 c-180 -285 -116 -694 141 -900 22 -18 10 -3 -27 35 -80
80 -140 177 -176 284 -23 69 -26 94 -26 213 0 120 3 144 27 215 15 44 42 106
62 138 40 66 39 78 -1 15z"/>
<path d="M3145 2946 c10 -14 19 -26 22 -26 7 0 -17 39 -28 46 -6 3 -3 -5 6
-20z"/>
<path d="M3198 2850 c14 -32 28 -57 30 -55 5 4 -45 115 -52 115 -2 0 8 -27 22
-60z"/>
<path d="M2380 2560 l0 -330 48 27 c390 225 512 298 512 303 0 5 -122 78 -512
303 l-48 27 0 -330z"/>
<path d="M3231 2770 c0 -8 4 -24 9 -35 5 -13 9 -14 9 -5 0 8 -4 24 -9 35 -5
13 -9 14 -9 5z"/>
<path d="M3258 2600 c3 -84 0 -134 -12 -184 -9 -38 -14 -71 -12 -73 2 -3 11
27 20 66 16 71 20 220 7 276 -4 17 -5 -22 -3 -85z"/>
<path d="M1732 2615 c0 -16 2 -22 5 -12 2 9 2 23 0 30 -3 6 -5 -1 -5 -18z"/>
<path d="M3402 2610 c0 -14 2 -19 5 -12 2 6 2 18 0 25 -3 6 -5 1 -5 -13z"/>
<path d="M1732 2505 c0 -16 2 -22 5 -12 2 9 2 23 0 30 -3 6 -5 -1 -5 -18z"/>
<path d="M3402 2510 c0 -14 2 -19 5 -12 2 6 2 18 0 25 -3 6 -5 1 -5 -13z"/>
<path d="M1741 2414 c0 -11 3 -14 6 -6 3 7 2 16 -1 19 -3 4 -6 -2 -5 -13z"/>
<path d="M3391 2414 c0 -11 3 -14 6 -6 3 7 2 16 -1 19 -3 4 -6 -2 -5 -13z"/>
<path d="M3197 2267 c-15 -34 -45 -87 -67 -117 -40 -54 -40 -54 -5 -15 35 39
113 181 104 190 -3 2 -17 -24 -32 -58z"/>
<path d="M3059 2063 l-24 -28 28 24 c25 23 32 31 24 31 -2 0 -14 -12 -28 -27z"/>
<path d="M3004 2018 l-19 -23 23 19 c21 18 27 26 19 26 -2 0 -12 -10 -23 -22z"/>
<path d="M2180 1980 c28 -25 102 -64 140 -74 14 -4 -3 7 -38 23 -34 17 -77 40
-95 51 l-32 22 25 -22z"/>
<path d="M2955 1983 c-38 -29 -160 -81 -232 -97 -40 -9 -109 -16 -155 -16 -76
1 -100 4 -193 24 -24 5 -21 3 10 -11 31 -13 72 -17 180 -17 121 -1 149 2 209
22 81 27 151 61 186 91 29 24 25 28 -5 4z"/>
<path d="M2503 1723 c9 -2 23 -2 30 0 6 3 -1 5 -18 5 -16 0 -22 -2 -12 -5z"/>
<path d="M2613 1723 c9 -2 23 -2 30 0 6 3 -1 5 -18 5 -16 0 -22 -2 -12 -5z"/>
</g>
</svg>
