<?xml version="1.0" standalone="no"?>
<!DOCTYPE svg PUBLIC "-//W3C//DTD SVG 20010904//EN"
 "http://www.w3.org/TR/2001/REC-SVG-20010904/DTD/svg10.dtd">
<svg version="1.0" xmlns="http://www.w3.org/2000/svg"
 width="512.000000pt" height="512.000000pt" viewBox="0 0 512.000000 512.000000"
 preserveAspectRatio="xMidYMid meet">
<metadata>
Created by potrace 1.14, written by Peter Selinger 2001-2017
</metadata>
<g transform="translate(0.000000,512.000000) scale(0.100000,-0.100000)"
fill="#000000" stroke="none">
<path d="M2468 5043 c34 -2 90 -2 125 0 34 2 6 3 -63 3 -69 0 -97 -1 -62 -3z"/>
<path d="M2385 5019 c-586 -32 -1152 -287 -1575 -709 -375 -376 -601 -818
-691 -1356 -30 -175 -32 -540 -5 -714 85 -544 315 -1000 696 -1380 377 -378
827 -605 1365 -691 209 -33 520 -31 735 5 348 58 640 167 922 346 604 383 996
983 1114 1705 26 156 26 553 1 715 -84 532 -318 993 -696 1370 -149 148 -277
250 -446 355 -416 257 -917 382 -1420 354z m335 -523 c353 -44 668 -168 945
-371 99 -72 280 -253 361 -360 247 -326 382 -699 400 -1110 20 -439 -114 -864
-386 -1227 -87 -116 -281 -308 -396 -394 -344 -254 -726 -377 -1153 -373
l-165 2 -25 -94 c-13 -52 -26 -96 -27 -98 -4 -4 -53 36 -324 268 -285 244
-303 261 -288 266 15 5 792 133 795 131 2 -1 -29 -116 -42 -157 -6 -18 0 -19
109 -19 555 0 1072 298 1372 790 106 174 165 327 206 532 32 163 32 434 0 597
-154 770 -757 1289 -1543 1328 -546 27 -1077 -256 -1409 -751 -70 -105 -139
-252 -194 -416 -37 -110 -52 -140 -78 -162 -83 -72 -207 -34 -239 71 -10 33
-8 52 16 137 91 322 264 610 517 864 411 412 988 616 1548 546z m-7 -857 c96
-13 251 -68 342 -120 327 -186 526 -509 542 -879 7 -157 -7 -261 -53 -401
-179 -538 -762 -842 -1310 -683 -579 167 -906 779 -722 1353 56 176 134 304
262 432 249 250 567 351 939 298z"/>
<path d="M2315 3501 c-97 -25 -147 -45 -234 -92 -563 -303 -661 -1076 -192
-1511 321 -297 787 -338 1157 -102 75 48 196 165 250 240 53 74 124 223 150
314 27 93 27 365 0 465 -24 91 -94 241 -150 319 -128 180 -350 326 -566 371
-101 21 -324 19 -415 -4z m320 -1 c290 -34 552 -205 695 -457 92 -160 125
-303 117 -503 -4 -112 -10 -150 -35 -226 -73 -228 -210 -402 -412 -524 -257
-155 -586 -170 -859 -40 -349 167 -548 500 -528 883 13 249 108 450 296 629
75 72 108 95 203 141 118 59 198 84 308 97 95 11 116 11 215 0z"/>
<path d="M2356 3434 c-266 -57 -494 -238 -611 -485 -56 -119 -75 -211 -75
-364 0 -159 19 -247 83 -380 145 -300 444 -485 782 -485 390 0 739 270 835
646 126 492 -192 985 -694 1073 -83 15 -238 12 -320 -5z m380 -24 c314 -74
562 -330 631 -654 24 -112 13 -317 -22 -426 -90 -281 -292 -478 -582 -567 -78
-23 -104 -26 -233 -26 -129 0 -155 3 -235 27 -172 52 -321 152 -428 286 -65
81 -136 219 -162 315 -22 83 -31 274 -16 360 75 428 454 733 881 709 47 -3
121 -13 166 -24z"/>
<path d="M2488 3403 c7 -3 16 -2 19 1 4 3 -2 6 -13 5 -11 0 -14 -3 -6 -6z"/>
<path d="M2558 3403 c6 -2 18 -2 25 0 6 3 1 5 -13 5 -14 0 -19 -2 -12 -5z"/>
<path d="M2398 3393 c7 -3 16 -2 19 1 4 3 -2 6 -13 5 -11 0 -14 -3 -6 -6z"/>
<path d="M2648 3393 c7 -3 16 -2 19 1 4 3 -2 6 -13 5 -11 0 -14 -3 -6 -6z"/>
<path d="M2415 3263 c-48 -10 -157 -45 -153 -48 2 -2 33 5 68 17 53 18 89 22
200 22 122 0 143 -2 215 -28 44 -15 100 -39 125 -52 25 -14 36 -18 25 -9 -31
27 -123 65 -204 86 -69 18 -220 24 -276 12z"/>
<path d="M2173 3170 c-18 -11 -33 -22 -33 -25 0 -2 16 5 35 16 19 12 35 23 35
25 0 6 -3 5 -37 -16z"/>
<path d="M3001 3070 c73 -72 94 -100 132 -180 96 -199 100 -391 12 -594 -49
-113 -177 -249 -290 -308 -35 -18 -62 -34 -60 -36 2 -2 32 11 67 29 78 42 222
182 266 259 17 30 43 91 58 135 24 70 28 95 28 205 1 144 -13 200 -76 322 -40
77 -132 188 -191 230 -18 13 7 -15 54 -62z"/>
<path d="M2109 3123 c-13 -16 -12 -17 4 -4 16 13 21 21 13 21 -2 0 -10 -8 -17
-17z"/>
<path d="M2428 3113 c6 -2 18 -2 25 0 6 3 1 5 -13 5 -14 0 -19 -2 -12 -5z"/>
<path d="M2618 3113 c7 -3 16 -2 19 1 4 3 -2 6 -13 5 -11 0 -14 -3 -6 -6z"/>
<path d="M2028 3051 c-101 -113 -166 -250 -173 -371 l-4 -65 9 60 c19 136 86
275 181 379 28 31 49 56 46 56 -3 0 -29 -27 -59 -59z"/>
<path d="M2202 3067 c-12 -13 -22 -33 -22 -45 0 -11 -4 -24 -10 -27 -5 -3 -10
-11 -10 -17 0 -7 4 -7 13 1 8 6 17 8 20 4 10 -10 8 -791 -2 -797 -5 -3 -22 4
-37 16 -26 20 -27 20 -11 2 9 -11 17 -33 17 -48 0 -70 59 -114 125 -93 17 5
41 9 55 9 l25 0 -27 14 c-16 8 -28 19 -28 23 0 5 154 98 343 207 188 108 354
206 369 216 36 25 38 24 39 -19 1 -23 3 -30 6 -18 3 11 12 29 19 40 20 27 17
69 -6 112 l-20 38 0 -33 c0 -17 -2 -32 -5 -32 -3 0 -22 11 -43 24 -20 13 -176
104 -347 201 -170 98 -323 187 -339 198 -28 20 -28 20 -8 31 17 9 11 11 -37
13 -49 3 -61 0 -79 -20z"/>
<path d="M2880 2997 c0 -2 15 -16 33 -33 l32 -29 -29 33 c-28 30 -36 37 -36
29z"/>
<path d="M3321 2794 c0 -11 3 -14 6 -6 3 7 2 16 -1 19 -3 4 -6 -2 -5 -13z"/>
<path d="M1731 2784 c0 -11 3 -14 6 -6 3 7 2 16 -1 19 -3 4 -6 -2 -5 -13z"/>
<path d="M3331 2754 c0 -11 3 -14 6 -6 3 7 2 16 -1 19 -3 4 -6 -2 -5 -13z"/>
<path d="M1721 2734 c0 -11 3 -14 6 -6 3 7 2 16 -1 19 -3 4 -6 -2 -5 -13z"/>
<path d="M3342 2690 c0 -14 2 -19 5 -12 2 6 2 18 0 25 -3 6 -5 1 -5 -13z"/>
<path d="M1713 2665 c0 -22 2 -30 4 -17 2 12 2 30 0 40 -3 9 -5 -1 -4 -23z"/>
<path d="M1993 2585 c0 -44 2 -61 4 -37 2 23 2 59 0 80 -2 20 -4 1 -4 -43z"/>
<path d="M1847 2540 c6 -95 34 -195 81 -285 65 -124 241 -280 352 -310 14 -3
-13 13 -60 36 -64 33 -104 63 -165 124 -121 121 -169 227 -204 450 l-9 60 5
-75z"/>
<path d="M1713 2505 c0 -22 2 -30 4 -17 2 12 2 30 0 40 -3 9 -5 -1 -4 -23z"/>
<path d="M3341 2474 c0 -11 3 -14 6 -6 3 7 2 16 -1 19 -3 4 -6 -2 -5 -13z"/>
<path d="M3051 2454 c0 -11 3 -14 6 -6 3 7 2 16 -1 19 -3 4 -6 -2 -5 -13z"/>
<path d="M1722 2430 c0 -14 2 -19 5 -12 2 6 2 18 0 25 -3 6 -5 1 -5 -13z"/>
<path d="M3331 2414 c0 -11 3 -14 6 -6 3 7 2 16 -1 19 -3 4 -6 -2 -5 -13z"/>
<path d="M1731 2384 c0 -11 3 -14 6 -6 3 7 2 16 -1 19 -3 4 -6 -2 -5 -13z"/>
<path d="M3321 2374 c0 -11 3 -14 6 -6 3 7 2 16 -1 19 -3 4 -6 -2 -5 -13z"/>
<path d="M2909 2203 l-34 -38 38 34 c20 19 37 36 37 38 0 8 -8 0 -41 -34z"/>
<path d="M1880 2076 c0 -2 8 -10 18 -17 15 -13 16 -12 3 4 -13 16 -21 21 -21
13z"/>
<path d="M2418 2053 c7 -3 16 -2 19 1 4 3 -2 6 -13 5 -11 0 -14 -3 -6 -6z"/>
<path d="M3109 2003 l-34 -38 38 34 c20 19 37 36 37 38 0 8 -8 0 -41 -34z"/>
<path d="M2720 1933 c-25 -8 -101 -18 -170 -22 l-125 -8 100 -1 c95 -2 206 16
244 38 23 13 4 11 -49 -7z"/>
<path d="M2355 1920 c19 -8 73 -14 64 -6 -2 2 -22 6 -44 9 -28 5 -34 4 -20 -3z"/>
<path d="M2388 1773 c7 -3 16 -2 19 1 4 3 -2 6 -13 5 -11 0 -14 -3 -6 -6z"/>
<path d="M2658 1773 c6 -2 18 -2 25 0 6 3 1 5 -13 5 -14 0 -19 -2 -12 -5z"/>
<path d="M2488 1763 c23 -2 61 -2 85 0 23 2 4 4 -43 4 -47 0 -66 -2 -42 -4z"/>
<path d="M3671 4766 c2 -2 15 -9 29 -15 24 -11 24 -11 6 3 -16 13 -49 24 -35
12z"/>
<path d="M3744 4728 c11 -7 78 -52 150 -99 451 -298 787 -734 965 -1252 93
-270 126 -480 125 -797 0 -315 -34 -528 -128 -797 -129 -370 -316 -665 -595
-943 -383 -382 -877 -624 -1414 -695 -156 -20 -478 -20 -634 0 -470 62 -928
268 -1290 579 -96 83 -152 140 -298 301 -15 17 -5 1 22 -35 68 -91 241 -269
353 -362 355 -298 816 -496 1300 -560 121 -15 456 -15 580 1 569 73 1061 313
1461 711 378 377 619 852 704 1385 25 155 31 482 11 649 -67 579 -326 1104
-742 1506 -163 158 -343 292 -509 379 -44 23 -71 36 -61 29z"/>
</g>
</svg>
